# File created by Blade
# Date/Time:  Thu Sep 25 17:43:48 2014
# Frame Rate: 120.000 fps
#------------------------------------------------------
:FULLY-SPECIFIED
:DEGREES
265
root -38.897834 32.753189 -3.075271 -351.837931 8.395218 4.654262
Spine -2.926309 9.154246 8.768647
Head -14.294645 12.176163 -8.265257
LeftShoulder -12.674187 24.980899 1.965400
LeftArm 30.744812 30.130332 -58.218270
LeftForeArm -6.622367 -0.000000 24.418904
LeftHand -25.440691 -0.000000 5.326197
LeftHandThumb1 -26.253704 0.000000 33.147579
RightShoulder -15.326632 6.431525 -26.269571
RightArm -13.458350 -42.062706 89.287353
RightForeArm -11.025809 -0.000000 29.460568
RightHand -3.353946 -0.000000 14.192134
RightHandThumb1 -24.326973 -0.000000 -32.862282
LeftUpLeg -12.754872 -1.328074 1.590250
LeftLeg 9.343102 -0.000000 -0.000000
LeftFoot -15.359780 23.429346 338.953244
LeftToeBase -5.253211 -0.000000 0.000000
RightUpLeg -1.754269 -26.983151 -0.347627
RightLeg 4.307332 -0.000000 -0.000000
RightFoot -12.559545 -14.344495 3.666420
RightToeBase 2.775253 -0.000000 -0.000000
266
root -38.837630 32.733201 -3.136231 -351.630595 8.480619 4.672743
Spine -3.036886 9.527479 8.926052
Head -13.849219 12.864340 -8.456401
LeftShoulder -12.879495 25.197535 1.659066
LeftArm 30.296412 29.723137 -58.758850
LeftForeArm -6.679603 -0.000000 24.401327
LeftHand -25.483352 -0.000000 5.313134
LeftHandThumb1 -26.253704 0.000000 33.147579
RightShoulder -15.183151 6.454286 -26.355292
RightArm -13.318176 -41.885186 88.971026
RightForeArm -11.027262 -0.000000 29.123775
RightHand -3.366265 -0.000000 14.309761
RightHandThumb1 -24.326973 -0.000000 -32.862282
LeftUpLeg -13.034025 -1.535416 1.773700
LeftLeg 9.204157 -0.000000 -0.000000
LeftFoot -15.511437 23.475233 338.925884
LeftToeBase -4.235462 -0.000000 0.000000
RightUpLeg -1.915104 -26.798775 -0.358758
RightLeg 4.049399 -0.000000 -0.000000
RightFoot -12.713424 -14.365570 3.861667
RightToeBase 3.007279 -0.000000 -0.000000
267
root -38.778764 32.719137 -3.201258 -351.447836 8.484585 4.665785
Spine -3.039526 9.885981 9.063725
Head -13.479709 13.732345 -8.752206
LeftShoulder -13.102856 25.258051 1.435056
LeftArm 29.685048 29.350363 -59.508921
LeftForeArm -6.662640 -0.000000 24.369054
LeftHand -25.528653 -0.000000 5.317104
LeftHandThumb1 -26.253704 0.000000 33.147579
RightShoulder -15.072738 6.538629 -26.399917
RightArm -13.150473 -41.820573 88.660713
RightForeArm -10.860139 -0.000000 28.845355
RightHand -3.526328 0.000000 14.199375
RightHandThumb1 -24.326973 -0.000000 -32.862282
LeftUpLeg -13.357589 -1.464853 1.936568
LeftLeg 9.158541 -0.000000 -0.000000
LeftFoot -15.429958 23.586025 339.158458
LeftToeBase -4.101939 -0.000000 0.000000
RightUpLeg -2.122252 -26.622992 -0.353957
RightLeg 3.889373 -0.000000 -0.000000
RightFoot -12.852408 -14.395058 4.033846
RightToeBase 3.192637 -0.000000 -0.000000
268
root -38.713904 32.710933 -3.262391 -351.277707 8.474807 4.682969
Spine -3.053850 10.249785 9.162998
Head -13.063621 14.490536 -8.865072
LeftShoulder -13.256643 25.286678 1.289993
LeftArm 29.070815 29.148986 -60.255270
LeftForeArm -6.931439 -0.000000 24.242359
LeftHand -25.530595 0.000000 5.534458
LeftHandThumb1 -26.253704 0.000000 33.147579
RightShoulder -14.957006 6.657023 -26.459620
RightArm -13.090825 -41.678435 88.456279
RightForeArm -10.749438 -0.000000 28.569253
RightHand -3.509833 -0.000000 14.196753
RightHandThumb1 -24.326973 -0.000000 -32.862282
LeftUpLeg -13.657678 -1.452773 2.101840
LeftLeg 9.169586 -0.000000 -0.000000
LeftFoot -15.315105 23.672055 339.364825
LeftToeBase -3.943739 -0.000000 0.000000
RightUpLeg -2.299766 -26.484839 -0.398820
RightLeg 3.712950 -0.000000 -0.000000
RightFoot -12.928048 -14.345645 4.227953
RightToeBase 3.473002 -0.000000 -0.000000
269
root -38.643395 32.706473 -3.321956 -351.129797 8.473150 4.717494
Spine -3.053368 10.591623 9.204580
Head -12.647407 15.264985 -8.780940
LeftShoulder -13.125707 25.176213 1.533634
LeftArm 27.509364 27.421381 -62.894968
LeftForeArm -5.068877 0.000000 23.883022
LeftHand -25.296084 0.000000 4.939081
LeftHandThumb1 -26.253704 0.000000 33.147579
RightShoulder -14.849358 6.718251 -26.462330
RightArm -13.021239 -41.619255 88.218850
RightForeArm -10.625254 -0.000000 28.414728
RightHand -3.535027 -0.000000 14.134765
RightHandThumb1 -24.326973 -0.000000 -32.862282
LeftUpLeg -13.918197 -1.477429 2.276226
LeftLeg 9.162191 -0.000000 -0.000000
LeftFoot -15.120592 23.809234 339.616865
LeftToeBase -3.848660 -0.000000 0.000000
RightUpLeg -2.422907 -26.298726 -0.461835
RightLeg 3.452795 -0.000000 -0.000000
RightFoot -12.938948 -14.487838 4.317035
RightToeBase 3.834297 -0.000000 -0.000000
270
root -38.574341 32.705679 -3.383762 -350.984457 8.515686 4.710802
Spine -3.066984 10.812447 9.342658
Head -12.365051 16.117415 -8.632017
LeftShoulder -13.025909 25.100908 1.726302
LeftArm 26.074200 25.491573 -65.547156
LeftForeArm -3.377151 -0.000000 23.385114
LeftHand -25.130447 0.000000 4.181266
LeftHandThumb1 -26.253704 0.000000 33.147579
RightShoulder -14.655672 6.830657 -26.548038
RightArm -13.002042 -41.468078 88.088938
RightForeArm -10.631560 -0.000000 28.273118
RightHand -3.501437 -0.000000 14.261761
RightHandThumb1 -24.326973 -0.000000 -32.862282
LeftUpLeg -14.259767 -1.312888 2.470789
LeftLeg 9.255955 -0.000000 -0.000000
LeftFoot -14.755575 23.722867 339.703747
LeftToeBase -4.378587 -0.000000 0.000000
RightUpLeg -2.587230 -26.260420 -0.476144
RightLeg 3.281097 -0.000000 -0.000000
RightFoot -12.943350 -14.494600 4.550542
RightToeBase 3.985781 -0.000000 -0.000000
271
root -38.502004 32.707746 -3.438503 -350.868988 8.526820 4.775581
Spine -3.021999 11.109864 9.328941
Head -12.032527 16.805660 -8.519514
LeftShoulder -13.040665 25.002903 1.778809
LeftArm 25.348267 25.362572 -66.435566
LeftForeArm -3.813910 -0.000000 23.146133
LeftHand -25.016607 0.000000 4.214474
LeftHandThumb1 -26.253704 0.000000 33.147579
RightShoulder -14.614776 6.945852 -26.571079
RightArm -13.054510 -41.522832 88.007000
RightForeArm -10.443647 -0.000000 28.241066
RightHand -3.578233 0.000000 14.259672
RightHandThumb1 -24.326973 -0.000000 -32.862282
LeftUpLeg -14.469636 -1.218813 2.637811
LeftLeg 9.152266 -0.000000 -0.000000
LeftFoot -14.291873 23.805859 339.838314
LeftToeBase -4.472699 -0.000000 0.000000
RightUpLeg -2.659783 -26.198069 -0.590201
RightLeg 3.026833 -0.000000 -0.000000
RightFoot -12.807770 -14.576952 4.606334
RightToeBase 3.980277 -0.000000 -0.000000
272
root -38.415932 32.714259 -3.487879 -350.792776 8.445279 4.875043
Spine -2.923059 11.441268 9.291392
Head -11.668130 17.551443 -8.454292
LeftShoulder -13.101613 24.963974 1.773976
LeftArm 24.699176 25.265587 -67.276169
LeftForeArm -4.161777 -0.000000 22.895483
LeftHand -25.009644 -0.000000 4.356451
LeftHandThumb1 -26.253704 0.000000 33.147579
RightShoulder -14.566928 7.022517 -26.597109
RightArm -13.038815 -41.469906 87.915710
RightForeArm -10.563054 -0.000000 28.189571
RightHand -3.350695 -0.000000 14.573762
RightHandThumb1 -24.326973 -0.000000 -32.862282
LeftUpLeg -14.494436 -1.309773 2.815680
LeftLeg 8.820997 -0.000000 -0.000000
LeftFoot -13.856729 23.981469 339.888322
LeftToeBase -3.888933 -0.000000 0.000000
RightUpLeg -2.674449 -26.078785 -0.804947
RightLeg 2.753802 -0.000000 -0.000000
RightFoot -12.654898 -14.613749 4.710603
RightToeBase 4.062646 -0.000000 -0.000000
273
root -38.329219 32.722690 -3.536441 -350.709201 8.422486 4.997368
Spine -2.846476 11.667284 9.195435
Head -11.345520 18.311780 -8.327278
LeftShoulder -13.100798 24.823933 1.873851
LeftArm 23.942527 25.227210 -68.208652
LeftForeArm -4.632755 0.000000 22.573869
LeftHand -25.097606 -0.000000 4.279669
LeftHandThumb1 -26.253704 0.000000 33.147579
RightShoulder -14.512453 7.123335 -26.592045
RightArm -13.091520 -41.516874 87.877596
RightForeArm -10.470069 -0.000000 28.250414
RightHand -3.366140 -0.000000 14.646793
RightHandThumb1 -24.326973 -0.000000 -32.862282
LeftUpLeg -14.594553 -1.278241 2.949551
LeftLeg 8.605727 -0.000000 -0.000000
LeftFoot -13.346560 23.922253 339.959194
LeftToeBase -3.525285 -0.000000 0.000000
RightUpLeg -2.699480 -26.182476 -1.023973
RightLeg 2.482755 -0.000000 -0.000000
RightFoot -12.448929 -14.565796 4.608122
RightToeBase 4.116047 -0.000000 -0.000000
274
root -38.242857 32.733359 -3.577401 -350.649837 8.415637 5.105981
Spine -2.764715 11.847340 9.104954
Head -11.049339 19.066681 -8.172499
LeftShoulder -13.171007 24.764425 1.894431
LeftArm 23.285090 25.078988 -69.084330
LeftForeArm -5.008839 -0.000000 22.215604
LeftHand -24.858472 -0.000000 4.042201
LeftHandThumb1 -26.253704 0.000000 33.147579
RightShoulder -14.484423 7.223068 -26.573939
RightArm -13.155521 -41.671041 87.878125
RightForeArm -10.281995 -0.000000 28.335792
RightHand -3.368976 0.000000 14.640529
RightHandThumb1 -24.326973 -0.000000 -32.862282
LeftUpLeg -14.727751 -1.154415 3.085381
LeftLeg 8.540733 -0.000000 -0.000000
LeftFoot -13.068054 23.869124 339.849010
LeftToeBase -3.241017 -0.000000 0.000000
RightUpLeg -2.636761 -26.285076 -1.242604
RightLeg 2.117792 -0.000000 -0.000000
RightFoot -12.195740 -14.528698 4.518547
RightToeBase 4.225622 -0.000000 -0.000000
275
root -38.145612 32.744497 -3.622067 -350.581902 8.374297 5.267742
Spine -2.683521 12.069273 8.929365
Head -10.755072 19.731472 -7.951905
LeftShoulder -13.084860 24.640202 2.004719
LeftArm 22.448474 24.608476 -70.203397
LeftForeArm -5.494523 -0.000000 21.775483
LeftHand -24.482475 -0.000000 3.909919
LeftHandThumb1 -26.253704 0.000000 33.147579
RightShoulder -14.491998 7.270523 -26.541350
RightArm -13.187890 -41.790662 87.890024
RightForeArm -10.112990 -0.000000 28.461062
RightHand -3.430529 -0.000000 14.526714
RightHandThumb1 -24.326973 -0.000000 -32.862282
LeftUpLeg -14.818853 -1.036125 3.179819
LeftLeg 8.355132 -0.000000 -0.000000
LeftFoot -12.816046 23.894668 339.916711
LeftToeBase -2.656748 -0.000000 0.000000
RightUpLeg -2.603936 -26.285958 -1.534272
RightLeg 1.862023 -0.000000 -0.000000
RightFoot -12.106311 -14.403517 5.124817
RightToeBase 4.156251 -0.000000 -0.000000
276
root -38.044633 32.754779 -3.663416 -350.515764 8.350711 5.415767
Spine -2.606460 12.166880 8.796692
Head -10.525934 20.512121 -7.825526
LeftShoulder -13.188198 24.684546 1.988642
LeftArm 21.942600 24.579356 -70.966565
LeftForeArm -5.872482 0.000000 21.417952
LeftHand -24.257937 -0.000000 3.303279
LeftHandThumb1 -26.253704 0.000000 33.147579
RightShoulder -14.437792 7.355139 -26.557818
RightArm -13.262683 -41.968901 87.998934
RightForeArm -9.974366 -0.000000 28.607580
RightHand -3.426252 -0.000000 14.519176
RightHandThumb1 -24.326973 -0.000000 -32.862282
LeftUpLeg -14.834139 -1.091069 3.335537
LeftLeg 8.059824 -0.000000 -0.000000
LeftFoot -12.524084 23.934151 339.830487
LeftToeBase -3.277876 -0.000000 0.000000
RightUpLeg -2.598952 -26.526243 -1.816888
RightLeg 1.627755 -0.000000 -0.000000
RightFoot -11.873599 -14.193874 5.106514
RightToeBase 4.071687 -0.000000 -0.000000
277
root -37.945679 32.765332 -3.709356 -350.430783 8.303037 5.605609
Spine -2.551965 12.331450 8.547570
Head -10.229062 21.154797 -7.511804
LeftShoulder -13.105001 24.666101 2.078105
LeftArm 21.317097 24.314084 -71.888547
LeftForeArm -6.344988 -0.000000 21.028548
LeftHand -24.481331 -0.000000 3.651486
LeftHandThumb1 -26.253704 0.000000 33.147579
RightShoulder -14.442260 7.467680 -26.552689
RightArm -13.397638 -42.052623 88.214853
RightForeArm -9.918733 -0.000000 28.712841
RightHand -3.323518 -0.000000 14.677219
RightHandThumb1 -24.326973 -0.000000 -32.862282
LeftUpLeg -14.907807 -1.205162 3.480589
LeftLeg 7.876060 -0.000000 -0.000000
LeftFoot -12.269291 23.867229 339.655777
LeftToeBase -3.832083 -0.000000 0.000000
RightUpLeg -2.741044 -26.986539 -2.122232
RightLeg 1.633227 -0.000000 -0.000000
RightFoot -11.799007 -13.740886 5.096785
RightToeBase 4.306090 -0.000000 -0.000000
